REM DIRINDEX 1\4,1\2\5,1\2\6,1\3\7\9,1\3\7\10,1\3\8\11,1\3\8\12
REM DIRNAME folder01,folder02,folder03,folder04,folder05,folder06,folder07,folder08,folder09,folder10,folder11,folder12
TITLE ""
FILE "CD-ATrack28.mp3" MP3
  TRACK 01 AUDIO
    TITLE "0:"
    INDEX 01 00:00:00
  TRACK 02 AUDIO
    TITLE "6:cjc051_0945"
    INDEX 01 00:00:19
  TRACK 03 AUDIO
    TITLE "5:cjc051_0946"
    INDEX 01 00:01:34
  TRACK 04 AUDIO
    TITLE "6:cjc051_0947"
    INDEX 01 00:02:40
  TRACK 05 AUDIO
    TITLE "5:cjc051_0948"
    INDEX 01 00:03:70
  TRACK 06 AUDIO
    TITLE "6:cjc051_0949"
    INDEX 01 00:05:07
  TRACK 07 AUDIO
    TITLE "5:cjc051_0950"
    INDEX 01 00:06:16
  TRACK 08 AUDIO
    TITLE "6:cjc051_0951"
    INDEX 01 00:07:15
  TRACK 09 AUDIO
    TITLE "5:cjc051_0952"
    INDEX 01 00:08:52
  TRACK 10 AUDIO
    TITLE "6:cjc051_0953"
    INDEX 01 00:09:61
  TRACK 11 AUDIO
    TITLE "5:cjc051_0954"
    INDEX 01 00:11:09
  TRACK 12 AUDIO
    TITLE "6:cjc051_0955"
    INDEX 01 00:12:14
  TRACK 13 AUDIO
    TITLE "5:cjc051_0956"
    INDEX 01 00:13:35
  TRACK 14 AUDIO
    TITLE "6:cjc051_0957"
    INDEX 01 00:14:37
  TRACK 15 AUDIO
    TITLE "5:cjc051_0958"
    INDEX 01 00:15:56
  TRACK 16 AUDIO
    TITLE "6:cjc051_0959"
    INDEX 01 00:16:67
  TRACK 17 AUDIO
    TITLE "5:cjc051_0960"
    INDEX 01 00:18:01
  TRACK 18 AUDIO
    TITLE "6:cjc051_0961"
    INDEX 01 00:18:68
  TRACK 19 AUDIO
    TITLE "5:cjc051_0962"
    INDEX 01 00:20:06
  TRACK 20 AUDIO
    TITLE "6:cjc051_0963"
    INDEX 01 00:21:17
  TRACK 21 AUDIO
    TITLE "5:cjc051_0964"
    INDEX 01 00:22:40
  TRACK 22 AUDIO
    TITLE "6:cjc051_0965"
    INDEX 01 00:23:51
  TRACK 23 AUDIO
    TITLE "5:cjc051_0966"
    INDEX 01 00:24:72
  TRACK 24 AUDIO
    TITLE "6:cjc051_0967"
    INDEX 01 00:26:11
  TRACK 25 AUDIO
    TITLE "5:cjc051_0968"
    INDEX 01 00:27:22
  TRACK 26 AUDIO
    TITLE "6:cjc051_0969"
    INDEX 01 00:28:21
  TRACK 27 AUDIO
    TITLE "5:cjc051_0970"
    INDEX 01 00:29:48
  TRACK 28 AUDIO
    TITLE "6:cjc051_0971"
    INDEX 01 00:30:52
  TRACK 29 AUDIO
    TITLE "5:cjc051_0972"
    INDEX 01 00:32:13
  TRACK 30 AUDIO
    TITLE "6:cjc051_0973"
    INDEX 01 00:33:19
  TRACK 31 AUDIO
    TITLE "5:cjc051_0974"
    INDEX 01 00:34:42
  TRACK 32 AUDIO
    TITLE "6:cjc051_0975"
    INDEX 01 00:35:47
  TRACK 33 AUDIO
    TITLE "5:cjc051_0976"
    INDEX 01 00:36:58
  TRACK 34 AUDIO
    TITLE "6:cjc051_0977"
    INDEX 01 00:37:52
  TRACK 35 AUDIO
    TITLE "5:cjc051_0978"
    INDEX 01 00:38:35
  TRACK 36 AUDIO
    TITLE "6:cjc051_0979"
    INDEX 01 00:39:31
  TRACK 37 AUDIO
    TITLE "5:cjc051_0980"
    INDEX 01 00:40:42
  TRACK 38 AUDIO
    TITLE "6:cjc051_0981"
    INDEX 01 00:41:38
  TRACK 39 AUDIO
    TITLE "5:cjc051_0982"
    INDEX 01 00:42:49
  TRACK 40 AUDIO
    TITLE "6:cjc051_0983"
    INDEX 01 00:43:48
  TRACK 41 AUDIO
    TITLE "5:cjc051_0984"
    INDEX 01 00:44:24
  TRACK 42 AUDIO
    TITLE "6:cjc051_0985"
    INDEX 01 00:45:22
  TRACK 43 AUDIO
    TITLE "5:cjc051_0986"
    INDEX 01 00:46:49
  TRACK 44 AUDIO
    TITLE "6:cjc051_0987"
    INDEX 01 00:47:46
  TRACK 45 AUDIO
    TITLE "5:cjc051_0988"
    INDEX 01 00:48:57
  TRACK 46 AUDIO
    TITLE "6:cjc051_0989"
    INDEX 01 00:49:51
  TRACK 47 AUDIO
    TITLE "5:cjc051_0990"
    INDEX 01 00:50:68
  TRACK 48 AUDIO
    TITLE "6:cjc051_0991"
    INDEX 01 00:51:63
  TRACK 49 AUDIO
    TITLE "5:cjc051_0992"
    INDEX 01 00:53:17
  TRACK 50 AUDIO
    TITLE "6:cjc051_0993"
    INDEX 01 00:54:27
  TRACK 51 AUDIO
    TITLE "5:cjc051_0994"
    INDEX 01 00:55:63
  TRACK 52 AUDIO
    TITLE "6:cjc051_0995"
    INDEX 01 00:56:63
  TRACK 53 AUDIO
    TITLE "5:cjc051_0996"
    INDEX 01 00:57:39
  TRACK 54 AUDIO
    TITLE "6:cjc051_0997"
    INDEX 01 00:58:32
  TRACK 55 AUDIO
    TITLE "5:cjc051_0998"
    INDEX 01 00:59:53
  TRACK 56 AUDIO
    TITLE "6:cjc051_0999"
    INDEX 01 01:00:55
  TRACK 57 AUDIO
    TITLE "5:cjc051_1000"
    INDEX 01 01:01:62
  TRACK 58 AUDIO
    TITLE "6:cjc051_1001"
    INDEX 01 01:02:59
  TRACK 59 AUDIO
    TITLE "5:cjc051_1002"
    INDEX 01 01:03:47
  TRACK 60 AUDIO
    TITLE "6:cjc051_1003"
    INDEX 01 01:04:54
  TRACK 61 AUDIO
    TITLE "5:cjc051_1004"
    INDEX 01 01:06:10
  TRACK 62 AUDIO
    TITLE "6:cjc051_1005"
    INDEX 01 01:07:02
  TRACK 63 AUDIO
    TITLE "5:cjc051_1006"
    INDEX 01 01:08:17
  TRACK 64 AUDIO
    TITLE "6:cjc051_1007"
    INDEX 01 01:09:12
  TRACK 65 AUDIO
    TITLE "5:cjc051_1008"
    INDEX 01 01:10:12
  TRACK 66 AUDIO
    TITLE "0:"
    INDEX 01 01:11:19
